<svg xmlns="http://www.w3.org/2000/svg" xmlns:xlink="http://www.w3.org/1999/xlink" version="1.1" style="background: #ffffff" viewBox="0 0 3270 2412"><style id="v-3" type="text/css">        .joint-element .scalable * {            vector-effect: non-scaling-stroke;        }    </style><defs joint-selector="defs"><marker id="v-21252848929" orient="auto" overflow="visible" markerUnits="userSpaceOnUse"><path id="v-83" stroke="#444444" fill="#444444" transform="rotate(180)" d="M 20 -10 0 0 20 10 Z"></path></marker></defs><g joint-selector="layers"  transform="matrix(1,0,0,1,0,0)"><g  style="pointer-events: none;"></g><g ></g><g  style="user-select: none;"><!--z-index:1--><!--z-index:2--><!--z-index:3--><!--z-index:4--><!--z-index:5--><!--z-index:6--><!--z-index:7--><!--z-index:8--><!--z-index:9--><!--z-index:10--><!--z-index:11--><!--z-index:12--><!--z-index:13--><!--z-index:14--><!--z-index:15--><!--z-index:16--><!--z-index:17--><!--z-index:18--><!--z-index:19--><!--z-index:20--><g   id="j_44"  transform="translate(20,2368)"><g id="v-466"><text  id="v-467" font-size="24px" xml:space="preserve" y="0.8em" font-weight="normal" text-anchor="start" fill="#444444" pointer-events="none" display="block" font-family="Tahoma, Verdana, Helvetica, Arial"><tspan dy="0" >Thursday, June 11, 2026 at 5:01 PM Central European Summer Time</tspan></text></g></g><!--z-index:21--><g   id="j_43"  transform="translate(20,2322)"><g id="v-464"><text  id="v-465" font-size="36px" xml:space="preserve" y="0.8em" font-weight="normal" text-anchor="start" fill="#444444" pointer-events="none" display="block" font-family="Tahoma, Verdana, Helvetica, Arial"><tspan dy="0" >Container View: GPSD Suite</tspan></text></g></g><!--z-index:22--><g   id="j_45"  transform="translate(199,226)" style=""><g  id="v-474" style="opacity: 1;"><rect  x="0" y="160" width="400" height="240" rx="70" id="v-476" stroke-width="2" pointer-events="visiblePainted" fill="#08427b" stroke="#073b6f" stroke-dasharray="" style="fill: rgb(8, 66, 123); stroke: rgb(7, 59, 111);"></rect><circle  cx="200" cy="88.88888888888889" r="88.88888888888889" id="v-475" stroke-width="2" pointer-events="visiblePainted" fill="#08427b" stroke="#073b6f" stroke-dasharray="" style="fill: rgb(8, 66, 123); stroke: rgb(7, 59, 111);"></circle><line  x1="80" y1="266.6666666666667" x2="80" y2="400" id="v-482" stroke="#073b6f" stroke-width="1" stroke-dasharray="" style="stroke: rgb(7, 59, 111);"></line><line  x1="320" y1="266.6666666666667" x2="320" y2="400" id="v-483" stroke="#073b6f" stroke-width="1" stroke-dasharray="" style="stroke: rgb(7, 59, 111);"></line><text  id="v-477" font-size="33.599999999999994px" xml:space="preserve" y="196.74" font-weight="bold" text-anchor="middle" pointer-events="visible" font-family="Tahoma, Verdana, Helvetica, Arial" fill="#ffffff" dominant-baseline="hanging" transform="matrix(1,0,0,1,200,0)" style="fill: rgb(255, 255, 255);"><tspan dy="0" >Client Application /</tspan><tspan dy="1.2em" x="0" >User</tspan></text><text  id="v-478" font-size="16.799999999999997px" xml:space="preserve" y="278.65999999999997" text-anchor="middle" font-family="Tahoma, Verdana, Helvetica, Arial" fill="#ffffff" dominant-baseline="hanging" transform="matrix(1,0,0,1,200,0)" style="display: block; fill: rgb(255, 255, 255);"><tspan dy="0" >[Person]</tspan></text><text  id="v-479" font-size="24px" xml:space="preserve" y="310.46" text-anchor="middle" font-family="Tahoma, Verdana, Helvetica, Arial" fill="#ffffff" dominant-baseline="hanging" transform="matrix(1,0,0,1,200,0)" style="display: block; fill: rgb(255, 255, 255);"><tspan dy="0" >Uses GPSD to access navigation</tspan><tspan dy="1.2em" x="0" >and timekeeping data.</tspan></text><g  id="v-480" font-weight="normal" text-anchor="middle" color="#ffffff" transform="matrix(1,0,0,1,197.5,368)" display="none" style="fill: rgb(255, 255, 255);"><g ></g><g ></g><g ></g><g ></g></g><image  id="v-481"></image></g></g><!--z-index:23--><g   id="j_46"  transform="translate(2619,871)" style=""><g  id="v-490" style="opacity: 1;"><rect  id="v-491" rx="20" ry="20" stroke-width="2" pointer-events="visiblePainted" fill="#999999" stroke="#8a8a8a" stroke-dasharray="8,8" width="450" height="300" style="fill: rgb(153, 153, 153); stroke: rgb(138, 138, 138);"></rect><text  id="v-492" font-size="33.599999999999994px" xml:space="preserve" y="66.74000000000001" font-weight="bold" text-anchor="middle" pointer-events="visible" font-family="Tahoma, Verdana, Helvetica, Arial" fill="#ffffff" dominant-baseline="hanging" transform="matrix(1,0,0,1,225,0)" style="fill: rgb(255, 255, 255);"><tspan dy="0" >Navigation Sensors</tspan><tspan dy="1.2em" x="0" >(External)</tspan></text><text  id="v-493" font-size="16.799999999999997px" xml:space="preserve" y="148.66" text-anchor="middle" font-family="Tahoma, Verdana, Helvetica, Arial" fill="#ffffff" dominant-baseline="hanging" transform="matrix(1,0,0,1,225,0)" style="display: block; fill: rgb(255, 255, 255);"><tspan dy="0" >[Software System]</tspan></text><text  id="v-494" font-size="24px" xml:space="preserve" y="180.45999999999998" text-anchor="middle" font-family="Tahoma, Verdana, Helvetica, Arial" fill="#ffffff" dominant-baseline="hanging" transform="matrix(1,0,0,1,225,0)" style="display: block; fill: rgb(255, 255, 255);"><tspan dy="0" >GPS, AIS, compass, or other</tspan><tspan dy="1.2em" x="0" >navigation-related sensors.</tspan></text><g  id="v-495" color="#ffffff" transform="matrix(1,0,0,1,222.5,268)" display="none" style="fill: rgb(255, 255, 255);"><g ></g><g ></g><g ></g><g ></g></g><image  id="v-496"></image></g></g><!--z-index:24--><g   id="j_47"  transform="translate(989,1521)" style=""><g  id="v-503" style="opacity: 1;"><rect  id="v-504" rx="20" ry="20" stroke-width="2" pointer-events="visiblePainted" fill="#999999" stroke="#8a8a8a" stroke-dasharray="8,8" width="450" height="300" style="fill: rgb(153, 153, 153); stroke: rgb(138, 138, 138);"></rect><text  id="v-505" font-size="33.599999999999994px" xml:space="preserve" y="66.74000000000001" font-weight="bold" text-anchor="middle" pointer-events="visible" font-family="Tahoma, Verdana, Helvetica, Arial" fill="#ffffff" dominant-baseline="hanging" transform="matrix(1,0,0,1,225,0)" style="fill: rgb(255, 255, 255);"><tspan dy="0" >DGPS / NTRIP Correction</tspan><tspan dy="1.2em" x="0" >Servers (External)</tspan></text><text  id="v-506" font-size="16.799999999999997px" xml:space="preserve" y="148.66" text-anchor="middle" font-family="Tahoma, Verdana, Helvetica, Arial" fill="#ffffff" dominant-baseline="hanging" transform="matrix(1,0,0,1,225,0)" style="display: block; fill: rgb(255, 255, 255);"><tspan dy="0" >[Software System]</tspan></text><text  id="v-507" font-size="24px" xml:space="preserve" y="180.45999999999998" text-anchor="middle" font-family="Tahoma, Verdana, Helvetica, Arial" fill="#ffffff" dominant-baseline="hanging" transform="matrix(1,0,0,1,225,0)" style="display: block; fill: rgb(255, 255, 255);"><tspan dy="0" >Provide differential GPS correction</tspan><tspan dy="1.2em" x="0" >updates.</tspan></text><g  id="v-508" color="#ffffff" transform="matrix(1,0,0,1,222.5,268)" display="none" style="fill: rgb(255, 255, 255);"><g ></g><g ></g><g ></g><g ></g></g><image  id="v-509"></image></g></g><!--z-index:25--><g   id="j_48"  transform="translate(989,1871)" style=""><g  id="v-516" style="opacity: 1;"><rect  id="v-517" rx="20" ry="20" stroke-width="2" pointer-events="visiblePainted" fill="#999999" stroke="#8a8a8a" stroke-dasharray="8,8" width="450" height="300" style="fill: rgb(153, 153, 153); stroke: rgb(138, 138, 138);"></rect><text  id="v-518" font-size="33.599999999999994px" xml:space="preserve" y="66.74000000000001" font-weight="bold" text-anchor="middle" pointer-events="visible" font-family="Tahoma, Verdana, Helvetica, Arial" fill="#ffffff" dominant-baseline="hanging" transform="matrix(1,0,0,1,225,0)" style="fill: rgb(255, 255, 255);"><tspan dy="0" >Hotplug System</tspan><tspan dy="1.2em" x="0" >(External)</tspan></text><text  id="v-519" font-size="16.799999999999997px" xml:space="preserve" y="148.66" text-anchor="middle" font-family="Tahoma, Verdana, Helvetica, Arial" fill="#ffffff" dominant-baseline="hanging" transform="matrix(1,0,0,1,225,0)" style="display: block; fill: rgb(255, 255, 255);"><tspan dy="0" >[Software System]</tspan></text><text  id="v-520" font-size="24px" xml:space="preserve" y="180.45999999999998" text-anchor="middle" font-family="Tahoma, Verdana, Helvetica, Arial" fill="#ffffff" dominant-baseline="hanging" transform="matrix(1,0,0,1,225,0)" style="display: block; fill: rgb(255, 255, 255);"><tspan dy="0" >Notifies GPSD when sensor devices</tspan><tspan dy="1.2em" x="0" >are added or removed.</tspan></text><g  id="v-521" color="#ffffff" transform="matrix(1,0,0,1,222.5,268)" display="none" style="fill: rgb(255, 255, 255);"><g ></g><g ></g><g ></g><g ></g></g><image  id="v-522"></image></g></g><!--z-index:26--><g   id="j_50"  transform="translate(939,245)" style="; opacity: 1;"><g id="v-536"><rect  id="v-537" width="1340" height="1179" rx="20" ry="20" stroke-width="2" pointer-events="none" stroke="#0f5eaa" fill="#ffffff" opacity="1" stroke-dasharray=""></rect><text  id="v-538" font-size="33.599999999999994px" xml:space="preserve" y="1140" font-weight="bold" text-anchor="start" pointer-events="visible" font-family="Tahoma, Verdana, Helvetica, Arial" fill="#1168bd" transform="matrix(1,0,0,1,15,0)"><tspan dy="0" >GPSD Suite</tspan></text><text  id="v-539" font-size="16.799999999999997px" xml:space="preserve" y="1164" font-weight="normal" text-anchor="start" pointer-events="visible" font-family="Tahoma, Verdana, Helvetica, Arial" fill="#1168bd" transform="matrix(1,0,0,1,15,0)"><tspan dy="0" >[Software System]</tspan></text><image  id="v-540" pointer-events="visible"></image></g></g><!--z-index:27--><g   id="j_49"  transform="translate(1779,871)" style=""><g  id="v-529" style="opacity: 1;"><rect  id="v-530" rx="20" ry="20" stroke-width="2" pointer-events="visiblePainted" fill="#438dd5" stroke="#3c7fc0" stroke-dasharray="" width="450" height="300" style="fill: rgb(67, 141, 213); stroke: rgb(60, 127, 192);"></rect><text  id="v-531" font-size="33.599999999999994px" xml:space="preserve" y="72.5" font-weight="bold" text-anchor="middle" pointer-events="visible" font-family="Tahoma, Verdana, Helvetica, Arial" fill="#ffffff" dominant-baseline="hanging" transform="matrix(1,0,0,1,225,0)" style="fill: rgb(255, 255, 255);"><tspan dy="0" >gpsd service daemon</tspan></text><text  id="v-532" font-size="16.799999999999997px" xml:space="preserve" y="114.1" text-anchor="middle" font-family="Tahoma, Verdana, Helvetica, Arial" fill="#ffffff" dominant-baseline="hanging" transform="matrix(1,0,0,1,225,0)" style="display: block; fill: rgb(255, 255, 255);"><tspan dy="0" >[Container: C]</tspan></text><text  id="v-533" font-size="24px" xml:space="preserve" y="145.89999999999998" text-anchor="middle" font-family="Tahoma, Verdana, Helvetica, Arial" fill="#ffffff" dominant-baseline="hanging" transform="matrix(1,0,0,1,225,0)" style="display: block; fill: rgb(255, 255, 255);"><tspan dy="0" >Main runtime process that manages</tspan><tspan dy="1.2em" x="0" >sensors and publishes reports to</tspan><tspan dy="1.2em" x="0" >clients.</tspan></text><g  id="v-534" color="#ffffff" transform="matrix(1,0,0,1,210,268)" display="none" style="fill: rgb(255, 255, 255);"><g  transform="translate(5 0)"><svg xmlns="http://www.w3.org/2000/svg" width="20" height="20" fill="currentColor" viewBox="0 0 16 16"><path fill-rule="evenodd" d="M6.5 12a5.5 5.5 0 1 0 0-11 5.5 5.5 0 0 0 0 11zM13 6.5a6.5 6.5 0 1 1-13 0 6.5 6.5 0 0 1 13 0z"></path><path d="M10.344 11.742c.03.04.062.078.098.115l3.85 3.85a1 1 0 0 0 1.415-1.414l-3.85-3.85a1.007 1.007 0 0 0-.115-.1 6.538 6.538 0 0 1-1.398 1.4z"></path><path fill-rule="evenodd" d="M6.5 3a.5.5 0 0 1 .5.5V6h2.5a.5.5 0 0 1 0 1H7v2.5a.5.5 0 0 1-1 0V7H3.5a.5.5 0 0 1 0-1H6V3.5a.5.5 0 0 1 .5-.5z"></path></svg></g><g ></g><g ></g><g ></g></g><image  id="v-535"></image></g></g><!--z-index:28--><g   id="j_51"  transform="translate(989,295)" style=""><g  id="v-547" style="opacity: 1;"><rect  id="v-548" rx="20" ry="20" stroke-width="2" pointer-events="visiblePainted" fill="#438dd5" stroke="#3c7fc0" stroke-dasharray="" width="450" height="300" style="fill: rgb(67, 141, 213); stroke: rgb(60, 127, 192);"></rect><text  id="v-549" font-size="33.599999999999994px" xml:space="preserve" y="58.10000000000001" font-weight="bold" text-anchor="middle" pointer-events="visible" font-family="Tahoma, Verdana, Helvetica, Arial" fill="#ffffff" dominant-baseline="hanging" transform="matrix(1,0,0,1,225,0)" style="fill: rgb(255, 255, 255);"><tspan dy="0" >Client libraries</tspan></text><text  id="v-550" font-size="16.799999999999997px" xml:space="preserve" y="99.7" text-anchor="middle" font-family="Tahoma, Verdana, Helvetica, Arial" fill="#ffffff" dominant-baseline="hanging" transform="matrix(1,0,0,1,225,0)" style="display: block; fill: rgb(255, 255, 255);"><tspan dy="0" >[Container: C / C++ / Python]</tspan></text><text  id="v-551" font-size="24px" xml:space="preserve" y="131.5" text-anchor="middle" font-family="Tahoma, Verdana, Helvetica, Arial" fill="#ffffff" dominant-baseline="hanging" transform="matrix(1,0,0,1,225,0)" style="display: block; fill: rgb(255, 255, 255);"><tspan dy="0" >Libraries for C, C++, Python, and</tspan><tspan dy="1.2em" x="0" >other bindings that hide JSON</tspan><tspan dy="1.2em" x="0" >protocol details from client</tspan><tspan dy="1.2em" x="0" >applications.</tspan></text><g  id="v-552" color="#ffffff" transform="matrix(1,0,0,1,222.5,268)" display="none" style="fill: rgb(255, 255, 255);"><g ></g><g ></g><g ></g><g ></g></g><image  id="v-553"></image></g></g><!--z-index:29--><g   id="j_52"  transform="translate(989,645)" style=""><g  id="v-560" style="opacity: 1;"><rect  id="v-561" rx="20" ry="20" stroke-width="2" pointer-events="visiblePainted" fill="#438dd5" stroke="#3c7fc0" stroke-dasharray="" width="450" height="300" style="fill: rgb(67, 141, 213); stroke: rgb(60, 127, 192);"></rect><text  id="v-562" font-size="33.599999999999994px" xml:space="preserve" y="58.10000000000001" font-weight="bold" text-anchor="middle" pointer-events="visible" font-family="Tahoma, Verdana, Helvetica, Arial" fill="#ffffff" dominant-baseline="hanging" transform="matrix(1,0,0,1,225,0)" style="fill: rgb(255, 255, 255);"><tspan dy="0" >Diagnostic tools</tspan></text><text  id="v-563" font-size="16.799999999999997px" xml:space="preserve" y="99.7" text-anchor="middle" font-family="Tahoma, Verdana, Helvetica, Arial" fill="#ffffff" dominant-baseline="hanging" transform="matrix(1,0,0,1,225,0)" style="display: block; fill: rgb(255, 255, 255);"><tspan dy="0" >[Container: C / Python]</tspan></text><text  id="v-564" font-size="24px" xml:space="preserve" y="131.5" text-anchor="middle" font-family="Tahoma, Verdana, Helvetica, Arial" fill="#ffffff" dominant-baseline="hanging" transform="matrix(1,0,0,1,225,0)" style="display: block; fill: rgb(255, 255, 255);"><tspan dy="0" >Tools such as gpsmon, gpsprof,</tspan><tspan dy="1.2em" x="0" >gpsctl, and gpsdecode for</tspan><tspan dy="1.2em" x="0" >monitoring, profiling, configuring,</tspan><tspan dy="1.2em" x="0" >and decoding sensor data.</tspan></text><g  id="v-565" color="#ffffff" transform="matrix(1,0,0,1,222.5,268)" display="none" style="fill: rgb(255, 255, 255);"><g ></g><g ></g><g ></g><g ></g></g><image  id="v-566"></image></g></g><!--z-index:30--><g   id="j_53"  transform="translate(989,995)" style=""><g  id="v-570" style="opacity: 1;"><rect  id="v-571" rx="20" ry="20" stroke-width="2" pointer-events="visiblePainted" fill="#438dd5" stroke="#3c7fc0" stroke-dasharray="" width="450" height="300" style="fill: rgb(67, 141, 213); stroke: rgb(60, 127, 192);"></rect><text  id="v-572" font-size="33.599999999999994px" xml:space="preserve" y="72.5" font-weight="bold" text-anchor="middle" pointer-events="visible" font-family="Tahoma, Verdana, Helvetica, Arial" fill="#ffffff" dominant-baseline="hanging" transform="matrix(1,0,0,1,225,0)" style="fill: rgb(255, 255, 255);"><tspan dy="0" >Test tools</tspan></text><text  id="v-573" font-size="16.799999999999997px" xml:space="preserve" y="114.1" text-anchor="middle" font-family="Tahoma, Verdana, Helvetica, Arial" fill="#ffffff" dominant-baseline="hanging" transform="matrix(1,0,0,1,225,0)" style="display: block; fill: rgb(255, 255, 255);"><tspan dy="0" >[Container: Python / C]</tspan></text><text  id="v-574" font-size="24px" xml:space="preserve" y="145.89999999999998" text-anchor="middle" font-family="Tahoma, Verdana, Helvetica, Arial" fill="#ffffff" dominant-baseline="hanging" transform="matrix(1,0,0,1,225,0)" style="display: block; fill: rgb(255, 255, 255);"><tspan dy="0" >Testing and regression tools,</tspan><tspan dy="1.2em" x="0" >especially gpsfake, which replays</tspan><tspan dy="1.2em" x="0" >sensor logs as live devices.</tspan></text><g  id="v-575" color="#ffffff" transform="matrix(1,0,0,1,222.5,268)" display="none" style="fill: rgb(255, 255, 255);"><g ></g><g ></g><g ></g><g ></g></g><image  id="v-576"></image></g></g><!--z-index:31--><g   id="j_54"  style="opacity: 1;"><path fill="none" cursor="pointer" stroke="transparent" stroke-linecap="round" joint-selector="wrapper" id="v-585" stroke-width="10" stroke-linejoin="round" d="M 599 436.7 L 759 445 C 765.6666666666666 445.53333333333325 772.3333333333333 445.86666666666656 779 446 L 989 445.4"></path><path fill="none" pointer-events="none" joint-selector="line" id="v-584" stroke="#444444" stroke-width="2" stroke-linejoin="round" stroke-dasharray="8 8" d="M 599 436.7 L 759 445 C 765.6666666666666 445.53333333333325 772.3333333333333 445.86666666666656 779 446 L 989 445.4" marker-end="url(#v-21252848929)"></path><g id="v-577" ><g id="v-578"  label-idx="0" cursor="move" transform="matrix(1,0,0,1,769,445.6499938964844)" style="cursor: default;"><rect joint-selector="rect" id="v-581" fill="#ffffff" rx="3" ry="3" x="-46.88743209838867" y="-17.1348876953125" width="93.932861328125" height="30.418607711791992" pointer-events="none"  style="display: block;"></rect><text joint-selector="text" id="v-580" font-size="24px" xml:space="preserve" fill="#444444" text-anchor="middle" pointer-events="none" font-family="Tahoma, Verdana, Helvetica, Arial" font-weight="normal"  style="display: block;"><tspan dy="0.3em" >Uses API</tspan></text></g><g id="v-579"  label-idx="1" cursor="move" transform="matrix(1,0,0,1,759,457.6499938964844)" style="cursor: default;"><rect joint-selector="rect" id="v-583" fill="#ffffff" rx="3" ry="3" x="1.1368683772161603e-13" y="0" width="0" height="0"  display="none"></rect><text joint-selector="text" id="v-582" fill="#000000" font-size="14" text-anchor="middle" text-vertical-anchor="middle" pointer-events="none"></text></g></g></g><!--z-index:32--><g   id="j_55"  style="opacity: 1;"><path fill="none" cursor="pointer" stroke="transparent" stroke-linecap="round" joint-selector="wrapper" id="v-597" stroke-width="10" stroke-linejoin="round" d="M 599 306.54 L 760 210 C 766 206.66666666666666 772.3333333333333 205 779 205 L 1599 205 C 1605.6666666666665 205 1610.333333333333 208 1613 214 L 1931.39 871"></path><path fill="none" pointer-events="none" joint-selector="line" id="v-596" stroke="#444444" stroke-width="2" stroke-linejoin="round" stroke-dasharray="8 8" d="M 599 306.54 L 760 210 C 766 206.66666666666666 772.3333333333333 205 779 205 L 1599 205 C 1605.6666666666665 205 1610.333333333333 208 1613 214 L 1931.39 871" marker-end="url(#v-21252848929)"></path><g id="v-589" ><g id="v-590"  label-idx="0" cursor="move" transform="matrix(1,0,0,1,1213.3515625,205)" style="cursor: default;"><rect joint-selector="rect" id="v-593" fill="#ffffff" rx="3" ry="3" x="-95.58097076416016" y="-45.93488311767578" width="193.73069763183594" height="88.01860809326172" pointer-events="none"  style="display: block;"></rect><text joint-selector="text" id="v-592" font-size="24px" xml:space="preserve" fill="#444444" text-anchor="middle" pointer-events="none" font-family="Tahoma, Verdana, Helvetica, Arial" font-weight="normal"  style="display: block;"><tspan dy="-0.8999999999999999em" >May communicate</tspan><tspan dy="1.2em" x="0" >directly over</tspan><tspan dy="1.2em" x="0" >TCP/IP</tspan></text></g><g id="v-591"  label-idx="1" cursor="move" transform="matrix(1,0,0,1,1203.3515625,245.8000030517578)" style="cursor: default;"><rect joint-selector="rect" id="v-595" fill="#ffffff" rx="3" ry="3" x="0" y="2.842170943040401e-14" width="0" height="0"  display="none"></rect><text joint-selector="text" id="v-594" fill="#000000" font-size="14" text-anchor="middle" text-vertical-anchor="middle" pointer-events="none"></text></g></g></g><!--z-index:33--><g   id="j_56"  style="opacity: 1;"><path fill="none" cursor="pointer" stroke="transparent" stroke-linecap="round" joint-selector="wrapper" id="v-609" stroke-width="10" stroke-linejoin="round" d="M 599 625.89 L 762 789 C 766.6666666666666 793.5333333333333 772.3333333333333 795.8666666666666 779 796 L 989 795.4"></path><path fill="none" pointer-events="none" joint-selector="line" id="v-608" stroke="#444444" stroke-width="2" stroke-linejoin="round" stroke-dasharray="8 8" d="M 599 625.89 L 762 789 C 766.6666666666666 793.5333333333333 772.3333333333333 795.8666666666666 779 796 L 989 795.4" marker-end="url(#v-21252848929)"></path><g id="v-601" ><g id="v-602"  label-idx="0" cursor="move" transform="matrix(1,0,0,1,769.6505126953125,794.1087646484375)" style="cursor: default;"><rect joint-selector="rect" id="v-605" fill="#ffffff" rx="3" ry="3" x="-71.48372650146484" y="-45.93488311767578" width="146.47091674804688" height="88.01860809326172" pointer-events="none"  style="display: block;"></rect><text joint-selector="text" id="v-604" font-size="24px" xml:space="preserve" fill="#444444" text-anchor="middle" pointer-events="none" font-family="Tahoma, Verdana, Helvetica, Arial" font-weight="normal"  style="display: block;"><tspan dy="-0.8999999999999999em" >Uses for</tspan><tspan dy="1.2em" x="0" >monitoring or</tspan><tspan dy="1.2em" x="0" >debugging</tspan></text></g><g id="v-603"  label-idx="1" cursor="move" transform="matrix(1,0,0,1,759.6505126953125,834.9087524414062)" style="cursor: default;"><rect joint-selector="rect" id="v-607" fill="#ffffff" rx="3" ry="3" x="1.1368683772161603e-13" y="0" width="0" height="0"  display="none"></rect><text joint-selector="text" id="v-606" fill="#000000" font-size="14" text-anchor="middle" text-vertical-anchor="middle" pointer-events="none"></text></g></g></g><!--z-index:34--><g   id="j_57"  style="opacity: 1;"><path fill="none" cursor="pointer" stroke="transparent" stroke-linecap="round" joint-selector="wrapper" id="v-621" stroke-width="10" stroke-linejoin="round" d="M 1439 445.46 L 1599 446 C 1605.6666666666665 445.86666666666656 1610.9999999999998 448.53333333333325 1615 454 L 1900.99 871"></path><path fill="none" pointer-events="none" joint-selector="line" id="v-620" stroke="#444444" stroke-width="2" stroke-linejoin="round" stroke-dasharray="8 8" d="M 1439 445.46 L 1599 446 C 1605.6666666666665 445.86666666666656 1610.9999999999998 448.53333333333325 1615 454 L 1900.99 871" marker-end="url(#v-21252848929)"></path><g id="v-613" ><g id="v-614"  label-idx="0" cursor="move" transform="matrix(1,0,0,1,1608.1868896484375,447.9949035644531)" style="cursor: default;"><rect joint-selector="rect" id="v-617" fill="#ffffff" rx="3" ry="3" x="-98.195068359375" y="-45.93488311767578" width="198.18983459472656" height="88.01860809326172" pointer-events="none"  style="display: block;"></rect><text joint-selector="text" id="v-616" font-size="24px" xml:space="preserve" fill="#444444" text-anchor="middle" pointer-events="none" font-family="Tahoma, Verdana, Helvetica, Arial" font-weight="normal"  style="display: block;"><tspan dy="-0.8999999999999999em" >Communicate with</tspan><tspan dy="1.2em" x="0" >daemon and</tspan><tspan dy="1.2em" x="0" >receive reports</tspan></text></g><g id="v-615"  label-idx="1" cursor="move" transform="matrix(1,0,0,1,1598.1868896484375,488.7948913574219)" style="cursor: default;"><rect joint-selector="rect" id="v-619" fill="#ffffff" rx="3" ry="3" x="2.2737367544323206e-13" y="1.1368683772161603e-13" width="0" height="0"  display="none"></rect><text joint-selector="text" id="v-618" fill="#000000" font-size="14" text-anchor="middle" text-vertical-anchor="middle" pointer-events="none"></text></g></g></g><!--z-index:35--><g   id="j_58"  style="opacity: 1;"><path fill="none" cursor="pointer" stroke="transparent" stroke-linecap="round" joint-selector="wrapper" id="v-633" stroke-width="10" stroke-linejoin="round" d="M 1439 795.46 L 1599 796 C 1605.6666666666665 795.8666666666666 1611.9999999999998 797.5333333333333 1618 801 L 1779 892.72"></path><path fill="none" pointer-events="none" joint-selector="line" id="v-632" stroke="#444444" stroke-width="2" stroke-linejoin="round" stroke-dasharray="8 8" d="M 1439 795.46 L 1599 796 C 1605.6666666666665 795.8666666666666 1611.9999999999998 797.5333333333333 1618 801 L 1779 892.72" marker-end="url(#v-21252848929)"></path><g id="v-625" ><g id="v-626"  label-idx="0" cursor="move" transform="matrix(1,0,0,1,1608.6015625,797.1112670898438)" style="cursor: default;"><rect joint-selector="rect" id="v-629" fill="#ffffff" rx="3" ry="3" x="-98.57530212402344" y="-45.93488311767578" width="198.9879913330078" height="88.01860809326172" pointer-events="none"  style="display: block;"></rect><text joint-selector="text" id="v-628" font-size="24px" xml:space="preserve" fill="#444444" text-anchor="middle" pointer-events="none" font-family="Tahoma, Verdana, Helvetica, Arial" font-weight="normal"  style="display: block;"><tspan dy="-0.8999999999999999em" >Monitor, configure,</tspan><tspan dy="1.2em" x="0" >or decode sensor</tspan><tspan dy="1.2em" x="0" >data</tspan></text></g><g id="v-627"  label-idx="1" cursor="move" transform="matrix(1,0,0,1,1598.6015625,837.9112548828125)" style="cursor: default;"><rect joint-selector="rect" id="v-631" fill="#ffffff" rx="3" ry="3" x="2.2737367544323206e-13" y="0" width="0" height="0"  display="none"></rect><text joint-selector="text" id="v-630" fill="#000000" font-size="14" text-anchor="middle" text-vertical-anchor="middle" pointer-events="none"></text></g></g></g><!--z-index:36--><g   id="j_59"  style="opacity: 1;"><path fill="none" cursor="pointer" stroke="transparent" stroke-linecap="round" joint-selector="wrapper" id="v-645" stroke-width="10" stroke-linejoin="round" d="M 1439 1145.46 L 1599 1146 C 1605.6666666666665 1145.8666666666666 1612.333333333333 1144.8666666666666 1619 1143 L 1779 1092.09"></path><path fill="none" pointer-events="none" joint-selector="line" id="v-644" stroke="#444444" stroke-width="2" stroke-linejoin="round" stroke-dasharray="8 8" d="M 1439 1145.46 L 1599 1146 C 1605.6666666666665 1145.8666666666666 1612.333333333333 1144.8666666666666 1619 1143 L 1779 1092.09" marker-end="url(#v-21252848929)"></path><g id="v-637" ><g id="v-638"  label-idx="0" cursor="move" transform="matrix(1,0,0,1,1608.9609375,1145.1558837890625)" style="cursor: default;"><rect joint-selector="rect" id="v-641" fill="#ffffff" rx="3" ry="3" x="-98.31388854980469" y="-45.93488311767578" width="198.06228637695312" height="88.01860809326172" pointer-events="none"  style="display: block;"></rect><text joint-selector="text" id="v-640" font-size="24px" xml:space="preserve" fill="#444444" text-anchor="middle" pointer-events="none" font-family="Tahoma, Verdana, Helvetica, Arial" font-weight="normal"  style="display: block;"><tspan dy="-0.8999999999999999em" >Replay sensor logs</tspan><tspan dy="1.2em" x="0" >for regression</tspan><tspan dy="1.2em" x="0" >testing</tspan></text></g><g id="v-639"  label-idx="1" cursor="move" transform="matrix(1,0,0,1,1598.9609375,1185.955810546875)" style="cursor: default;"><rect joint-selector="rect" id="v-643" fill="#ffffff" rx="3" ry="3" x="2.2737367544323206e-13" y="0" width="0" height="0"  display="none"></rect><text joint-selector="text" id="v-642" fill="#000000" font-size="14" text-anchor="middle" text-vertical-anchor="middle" pointer-events="none"></text></g></g></g><!--z-index:37--><g   id="j_60"  style="opacity: 1;"><path fill="none" cursor="pointer" stroke="transparent" stroke-linecap="round" joint-selector="wrapper" id="v-657" stroke-width="10" stroke-linejoin="round" d="M 2229 1021 L 2619 1021"></path><path fill="none" pointer-events="none" joint-selector="line" id="v-656" stroke="#444444" stroke-width="2" stroke-linejoin="round" stroke-dasharray="8 8" d="M 2229 1021 L 2619 1021" marker-end="url(#v-21252848929)"></path><g id="v-649" ><g id="v-650"  label-idx="0" cursor="move" transform="matrix(1,0,0,1,2449,1021)" style="cursor: default;"><rect joint-selector="rect" id="v-653" fill="#ffffff" rx="3" ry="3" x="-93.06192779541016" y="-31.53488540649414" width="189.61204528808594" height="59.21860885620117" pointer-events="none"  style="display: block;"></rect><text joint-selector="text" id="v-652" font-size="24px" xml:space="preserve" fill="#444444" text-anchor="middle" pointer-events="none" font-family="Tahoma, Verdana, Helvetica, Arial" font-weight="normal"  style="display: block;"><tspan dy="-0.3em" >Reads raw sensor</tspan><tspan dy="1.2em" x="0" >data</tspan></text></g><g id="v-651"  label-idx="1" cursor="move" transform="matrix(1,0,0,1,2439,1047.4000244140625)" style="cursor: default;"><rect joint-selector="rect" id="v-655" fill="#ffffff" rx="3" ry="3" x="4.547473508864641e-13" y="0" width="0" height="0"  display="none"></rect><text joint-selector="text" id="v-654" fill="#000000" font-size="14" text-anchor="middle" text-vertical-anchor="middle" pointer-events="none"></text></g></g></g><!--z-index:38--><g   id="j_61"  style="opacity: 1;"><path fill="none" cursor="pointer" stroke="transparent" stroke-linecap="round" joint-selector="wrapper" id="v-669" stroke-width="10" stroke-linejoin="round" d="M 1359.22 1521 L 1602 1270 C 1606.6666666666665 1265.3333333333333 1611.9999999999998 1261.3333333333333 1618 1258 L 1779 1158.85"></path><path fill="none" pointer-events="none" joint-selector="line" id="v-668" stroke="#444444" stroke-width="2" stroke-linejoin="round" stroke-dasharray="8 8" d="M 1359.22 1521 L 1602 1270 C 1606.6666666666665 1265.3333333333333 1611.9999999999998 1261.3333333333333 1618 1258 L 1779 1158.85" marker-end="url(#v-21252848929)"></path><g id="v-661" ><g id="v-662"  label-idx="0" cursor="move" transform="matrix(1,0,0,1,1609.46875,1263.5234375)" style="cursor: default;"><rect joint-selector="rect" id="v-665" fill="#ffffff" rx="3" ry="3" x="-95.10568237304688" y="-31.53488540649414" width="192.01004028320312" height="59.21860885620117" pointer-events="none"  style="display: block;"></rect><text joint-selector="text" id="v-664" font-size="24px" xml:space="preserve" fill="#444444" text-anchor="middle" pointer-events="none" font-family="Tahoma, Verdana, Helvetica, Arial" font-weight="normal"  style="display: block;"><tspan dy="-0.3em" >Provide correction</tspan><tspan dy="1.2em" x="0" >updates</tspan></text></g><g id="v-663"  label-idx="1" cursor="move" transform="matrix(1,0,0,1,1599.46875,1289.9234619140625)" style="cursor: default;"><rect joint-selector="rect" id="v-667" fill="#ffffff" rx="3" ry="3" x="0" y="-2.2737367544323206e-13" width="0" height="0"  display="none"></rect><text joint-selector="text" id="v-666" fill="#000000" font-size="14" text-anchor="middle" text-vertical-anchor="middle" pointer-events="none"></text></g></g></g><!--z-index:39--><g   id="j_62"  style="opacity: 1;"><path fill="none" cursor="pointer" stroke="transparent" stroke-linecap="round" joint-selector="wrapper" id="v-681" stroke-width="10" stroke-linejoin="round" d="M 1306.46 1871 L 1604 1389 C 1607.333333333333 1383.1333333333332 1611.333333333333 1377.8 1616 1373 L 1839.05 1171"></path><path fill="none" pointer-events="none" joint-selector="line" id="v-680" stroke="#444444" stroke-width="2" stroke-linejoin="round" stroke-dasharray="8 8" d="M 1306.46 1871 L 1604 1389 C 1607.333333333333 1383.1333333333332 1611.333333333333 1377.8 1616 1373 L 1839.05 1171" marker-end="url(#v-21252848929)"></path><g id="v-673" ><g id="v-674"  label-idx="0" cursor="move" transform="matrix(1,0,0,1,1609.735107421875,1380.2880859375)" style="cursor: default;"><rect joint-selector="rect" id="v-677" fill="#ffffff" rx="3" ry="3" x="-68.89339447021484" y="-45.93488311767578" width="140.3720703125" height="88.01860809326172" pointer-events="none"  style="display: block;"></rect><text joint-selector="text" id="v-676" font-size="24px" xml:space="preserve" fill="#444444" text-anchor="middle" pointer-events="none" font-family="Tahoma, Verdana, Helvetica, Arial" font-weight="normal"  style="display: block;"><tspan dy="-0.8999999999999999em" >Sends device</tspan><tspan dy="1.2em" x="0" >add/remove</tspan><tspan dy="1.2em" x="0" >notifications</tspan></text></g><g id="v-675"  label-idx="1" cursor="move" transform="matrix(1,0,0,1,1599.735107421875,1421.088134765625)" style="cursor: default;"><rect joint-selector="rect" id="v-679" fill="#ffffff" rx="3" ry="3" x="0" y="0" width="0" height="0"  display="none"></rect><text joint-selector="text" id="v-678" fill="#000000" font-size="14" text-anchor="middle" text-vertical-anchor="middle" pointer-events="none"></text></g></g></g><!--z-index:40--></g><g  style="user-select: none;"></g><g ></g><g  display="none"></g></g></svg>