<svg xmlns="http://www.w3.org/2000/svg" xmlns:xlink="http://www.w3.org/1999/xlink" version="1.1" style="background: #ffffff" viewBox="0 0 2430 1500"><style id="v-3" type="text/css">        .joint-element .scalable * {            vector-effect: non-scaling-stroke;        }    </style><defs joint-selector="defs"><marker id="v-21252848929" orient="auto" overflow="visible" markerUnits="userSpaceOnUse"><path id="v-83" stroke="#444444" fill="#444444" transform="rotate(180)" d="M 20 -10 0 0 20 10 Z"></path></marker></defs><g joint-selector="layers"  transform="matrix(1,0,0,1,0,0)"><g  style="pointer-events: none;"></g><g ></g><g  style="user-select: none;"><!--z-index:1--><!--z-index:2--><!--z-index:3--><!--z-index:4--><!--z-index:5--><!--z-index:6--><!--z-index:7--><!--z-index:8--><!--z-index:9--><!--z-index:10--><!--z-index:11--><g   id="j_33"  transform="translate(20,1456)"><g id="v-349"><text  id="v-350" font-size="24px" xml:space="preserve" y="0.8em" font-weight="normal" text-anchor="start" fill="#444444" pointer-events="none" display="block" font-family="Tahoma, Verdana, Helvetica, Arial"><tspan dy="0" >Thursday, June 11, 2026 at 5:01 PM Central European Summer Time</tspan></text></g></g><!--z-index:12--><g   id="j_32"  transform="translate(20,1410)"><g id="v-347"><text  id="v-348" font-size="36px" xml:space="preserve" y="0.8em" font-weight="normal" text-anchor="start" fill="#444444" pointer-events="none" display="block" font-family="Tahoma, Verdana, Helvetica, Arial"><tspan dy="0" >System Context View: GPSD Suite</tspan></text></g></g><!--z-index:13--><g   id="j_34"  transform="translate(224,159)" style=""><g  id="v-357" style="opacity: 1;"><rect  x="0" y="160" width="400" height="240" rx="70" id="v-359" stroke-width="2" pointer-events="visiblePainted" fill="#08427b" stroke="#073b6f" stroke-dasharray="" style="fill: rgb(8, 66, 123); stroke: rgb(7, 59, 111);"></rect><circle  cx="200" cy="88.88888888888889" r="88.88888888888889" id="v-358" stroke-width="2" pointer-events="visiblePainted" fill="#08427b" stroke="#073b6f" stroke-dasharray="" style="fill: rgb(8, 66, 123); stroke: rgb(7, 59, 111);"></circle><line  x1="80" y1="266.6666666666667" x2="80" y2="400" id="v-365" stroke="#073b6f" stroke-width="1" stroke-dasharray="" style="stroke: rgb(7, 59, 111);"></line><line  x1="320" y1="266.6666666666667" x2="320" y2="400" id="v-366" stroke="#073b6f" stroke-width="1" stroke-dasharray="" style="stroke: rgb(7, 59, 111);"></line><text  id="v-360" font-size="33.599999999999994px" xml:space="preserve" y="196.74" font-weight="bold" text-anchor="middle" pointer-events="visible" font-family="Tahoma, Verdana, Helvetica, Arial" fill="#ffffff" dominant-baseline="hanging" transform="matrix(1,0,0,1,200,0)" style="fill: rgb(255, 255, 255);"><tspan dy="0" >Client Application /</tspan><tspan dy="1.2em" x="0" >User</tspan></text><text  id="v-361" font-size="16.799999999999997px" xml:space="preserve" y="278.65999999999997" text-anchor="middle" font-family="Tahoma, Verdana, Helvetica, Arial" fill="#ffffff" dominant-baseline="hanging" transform="matrix(1,0,0,1,200,0)" style="display: block; fill: rgb(255, 255, 255);"><tspan dy="0" >[Person]</tspan></text><text  id="v-362" font-size="24px" xml:space="preserve" y="310.46" text-anchor="middle" font-family="Tahoma, Verdana, Helvetica, Arial" fill="#ffffff" dominant-baseline="hanging" transform="matrix(1,0,0,1,200,0)" style="display: block; fill: rgb(255, 255, 255);"><tspan dy="0" >Uses GPSD to access navigation</tspan><tspan dy="1.2em" x="0" >and timekeeping data.</tspan></text><g  id="v-363" font-weight="normal" text-anchor="middle" color="#ffffff" transform="matrix(1,0,0,1,197.5,368)" display="none" style="fill: rgb(255, 255, 255);"><g ></g><g ></g><g ></g><g ></g></g><image  id="v-364"></image></g></g><!--z-index:14--><g   id="j_35"  transform="translate(1779,609)" style=""><g  id="v-373" style="opacity: 1;"><rect  id="v-374" rx="20" ry="20" stroke-width="2" pointer-events="visiblePainted" fill="#999999" stroke="#8a8a8a" stroke-dasharray="8,8" width="450" height="300" style="fill: rgb(153, 153, 153); stroke: rgb(138, 138, 138);"></rect><text  id="v-375" font-size="33.599999999999994px" xml:space="preserve" y="66.74000000000001" font-weight="bold" text-anchor="middle" pointer-events="visible" font-family="Tahoma, Verdana, Helvetica, Arial" fill="#ffffff" dominant-baseline="hanging" transform="matrix(1,0,0,1,225,0)" style="fill: rgb(255, 255, 255);"><tspan dy="0" >Navigation Sensors</tspan><tspan dy="1.2em" x="0" >(External)</tspan></text><text  id="v-376" font-size="16.799999999999997px" xml:space="preserve" y="148.66" text-anchor="middle" font-family="Tahoma, Verdana, Helvetica, Arial" fill="#ffffff" dominant-baseline="hanging" transform="matrix(1,0,0,1,225,0)" style="display: block; fill: rgb(255, 255, 255);"><tspan dy="0" >[Software System]</tspan></text><text  id="v-377" font-size="24px" xml:space="preserve" y="180.45999999999998" text-anchor="middle" font-family="Tahoma, Verdana, Helvetica, Arial" fill="#ffffff" dominant-baseline="hanging" transform="matrix(1,0,0,1,225,0)" style="display: block; fill: rgb(255, 255, 255);"><tspan dy="0" >GPS, AIS, compass, or other</tspan><tspan dy="1.2em" x="0" >navigation-related sensors.</tspan></text><g  id="v-378" color="#ffffff" transform="matrix(1,0,0,1,222.5,268)" display="none" style="fill: rgb(255, 255, 255);"><g ></g><g ></g><g ></g><g ></g></g><image  id="v-379"></image></g></g><!--z-index:15--><g   id="j_36"  transform="translate(199,609)" style=""><g  id="v-386" style="opacity: 1;"><rect  id="v-387" rx="20" ry="20" stroke-width="2" pointer-events="visiblePainted" fill="#999999" stroke="#8a8a8a" stroke-dasharray="8,8" width="450" height="300" style="fill: rgb(153, 153, 153); stroke: rgb(138, 138, 138);"></rect><text  id="v-388" font-size="33.599999999999994px" xml:space="preserve" y="66.74000000000001" font-weight="bold" text-anchor="middle" pointer-events="visible" font-family="Tahoma, Verdana, Helvetica, Arial" fill="#ffffff" dominant-baseline="hanging" transform="matrix(1,0,0,1,225,0)" style="fill: rgb(255, 255, 255);"><tspan dy="0" >DGPS / NTRIP Correction</tspan><tspan dy="1.2em" x="0" >Servers (External)</tspan></text><text  id="v-389" font-size="16.799999999999997px" xml:space="preserve" y="148.66" text-anchor="middle" font-family="Tahoma, Verdana, Helvetica, Arial" fill="#ffffff" dominant-baseline="hanging" transform="matrix(1,0,0,1,225,0)" style="display: block; fill: rgb(255, 255, 255);"><tspan dy="0" >[Software System]</tspan></text><text  id="v-390" font-size="24px" xml:space="preserve" y="180.45999999999998" text-anchor="middle" font-family="Tahoma, Verdana, Helvetica, Arial" fill="#ffffff" dominant-baseline="hanging" transform="matrix(1,0,0,1,225,0)" style="display: block; fill: rgb(255, 255, 255);"><tspan dy="0" >Provide differential GPS correction</tspan><tspan dy="1.2em" x="0" >updates.</tspan></text><g  id="v-391" color="#ffffff" transform="matrix(1,0,0,1,222.5,268)" display="none" style="fill: rgb(255, 255, 255);"><g ></g><g ></g><g ></g><g ></g></g><image  id="v-392"></image></g></g><!--z-index:16--><g   id="j_37"  transform="translate(199,959)" style=""><g  id="v-399" style="opacity: 1;"><rect  id="v-400" rx="20" ry="20" stroke-width="2" pointer-events="visiblePainted" fill="#999999" stroke="#8a8a8a" stroke-dasharray="8,8" width="450" height="300" style="fill: rgb(153, 153, 153); stroke: rgb(138, 138, 138);"></rect><text  id="v-401" font-size="33.599999999999994px" xml:space="preserve" y="66.74000000000001" font-weight="bold" text-anchor="middle" pointer-events="visible" font-family="Tahoma, Verdana, Helvetica, Arial" fill="#ffffff" dominant-baseline="hanging" transform="matrix(1,0,0,1,225,0)" style="fill: rgb(255, 255, 255);"><tspan dy="0" >Hotplug System</tspan><tspan dy="1.2em" x="0" >(External)</tspan></text><text  id="v-402" font-size="16.799999999999997px" xml:space="preserve" y="148.66" text-anchor="middle" font-family="Tahoma, Verdana, Helvetica, Arial" fill="#ffffff" dominant-baseline="hanging" transform="matrix(1,0,0,1,225,0)" style="display: block; fill: rgb(255, 255, 255);"><tspan dy="0" >[Software System]</tspan></text><text  id="v-403" font-size="24px" xml:space="preserve" y="180.45999999999998" text-anchor="middle" font-family="Tahoma, Verdana, Helvetica, Arial" fill="#ffffff" dominant-baseline="hanging" transform="matrix(1,0,0,1,225,0)" style="display: block; fill: rgb(255, 255, 255);"><tspan dy="0" >Notifies GPSD when sensor devices</tspan><tspan dy="1.2em" x="0" >are added or removed.</tspan></text><g  id="v-404" color="#ffffff" transform="matrix(1,0,0,1,222.5,268)" display="none" style="fill: rgb(255, 255, 255);"><g ></g><g ></g><g ></g><g ></g></g><image  id="v-405"></image></g></g><!--z-index:17--><g   id="j_38"  transform="translate(989,609)" style=""><g  id="v-409" style="opacity: 1;"><rect  id="v-410" rx="20" ry="20" stroke-width="2" pointer-events="visiblePainted" fill="#1168bd" stroke="#0f5eaa" stroke-dasharray="" width="450" height="300" style="fill: rgb(17, 104, 189); stroke: rgb(15, 94, 170);"></rect><text  id="v-411" font-size="33.599999999999994px" xml:space="preserve" y="72.5" font-weight="bold" text-anchor="middle" pointer-events="visible" font-family="Tahoma, Verdana, Helvetica, Arial" fill="#ffffff" dominant-baseline="hanging" transform="matrix(1,0,0,1,225,0)" style="fill: rgb(255, 255, 255);"><tspan dy="0" >GPSD Suite</tspan></text><text  id="v-412" font-size="16.799999999999997px" xml:space="preserve" y="114.1" text-anchor="middle" font-family="Tahoma, Verdana, Helvetica, Arial" fill="#ffffff" dominant-baseline="hanging" transform="matrix(1,0,0,1,225,0)" style="display: block; fill: rgb(255, 255, 255);"><tspan dy="0" >[Software System]</tspan></text><text  id="v-413" font-size="24px" xml:space="preserve" y="145.89999999999998" text-anchor="middle" font-family="Tahoma, Verdana, Helvetica, Arial" fill="#ffffff" dominant-baseline="hanging" transform="matrix(1,0,0,1,225,0)" style="display: block; fill: rgb(255, 255, 255);"><tspan dy="0" >Suite of tools for managing GPS</tspan><tspan dy="1.2em" x="0" >devices and navigation-related</tspan><tspan dy="1.2em" x="0" >sensors.</tspan></text><g  id="v-414" color="#ffffff" transform="matrix(1,0,0,1,210,268)" display="none" style="fill: rgb(255, 255, 255);"><g  transform="translate(5 0)"><svg xmlns="http://www.w3.org/2000/svg" width="20" height="20" fill="currentColor" viewBox="0 0 16 16"><path fill-rule="evenodd" d="M6.5 12a5.5 5.5 0 1 0 0-11 5.5 5.5 0 0 0 0 11zM13 6.5a6.5 6.5 0 1 1-13 0 6.5 6.5 0 0 1 13 0z"></path><path d="M10.344 11.742c.03.04.062.078.098.115l3.85 3.85a1 1 0 0 0 1.415-1.414l-3.85-3.85a1.007 1.007 0 0 0-.115-.1 6.538 6.538 0 0 1-1.398 1.4z"></path><path fill-rule="evenodd" d="M6.5 3a.5.5 0 0 1 .5.5V6h2.5a.5.5 0 0 1 0 1H7v2.5a.5.5 0 0 1-1 0V7H3.5a.5.5 0 0 1 0-1H6V3.5a.5.5 0 0 1 .5-.5z"></path></svg></g><g ></g><g ></g><g ></g></g><image  id="v-415"></image></g></g><!--z-index:18--><g   id="j_39"  style="opacity: 1;"><path fill="none" cursor="pointer" stroke="transparent" stroke-linecap="round" joint-selector="wrapper" id="v-424" stroke-width="10" stroke-linejoin="round" d="M 624 359 L 809 359 C 815.6666666666666 359 821.3333333333333 361.3333333333333 826 366 L 1065.88 609"></path><path fill="none" pointer-events="none" joint-selector="line" id="v-423" stroke="#444444" stroke-width="2" stroke-linejoin="round" stroke-dasharray="8 8" d="M 624 359 L 809 359 C 815.6666666666666 359 821.3333333333333 361.3333333333333 826 366 L 1065.88 609" marker-end="url(#v-21252848929)"></path><g id="v-416" ><g id="v-417"  label-idx="0" cursor="move" transform="matrix(1,0,0,1,818.4157104492188,360.81903076171875)" style="cursor: default;"><rect joint-selector="rect" id="v-420" fill="#ffffff" rx="3" ry="3" x="-46.9046516418457" y="-17.665115356445312" width="93.89756774902344" height="29.38604736328125" pointer-events="none"  style="display: block;"></rect><text joint-selector="text" id="v-419" font-size="24px" xml:space="preserve" fill="#444444" text-anchor="middle" pointer-events="none" font-family="Tahoma, Verdana, Helvetica, Arial" font-weight="normal"  style="display: block;"><tspan dy="0.3em" >Uses API</tspan></text></g><g id="v-418"  label-idx="1" cursor="move" transform="matrix(1,0,0,1,808.4157104492188,372.81903076171875)" style="cursor: default;"><rect joint-selector="rect" id="v-422" fill="#ffffff" rx="3" ry="3" x="1.1368683772161603e-13" y="0" width="0" height="0"  display="none"></rect><text joint-selector="text" id="v-421" fill="#000000" font-size="14" text-anchor="middle" text-vertical-anchor="middle" pointer-events="none"></text></g></g></g><!--z-index:19--><g   id="j_40"  style="opacity: 1;"><path fill="none" cursor="pointer" stroke="transparent" stroke-linecap="round" joint-selector="wrapper" id="v-436" stroke-width="10" stroke-linejoin="round" d="M 1439 759 L 1779 759"></path><path fill="none" pointer-events="none" joint-selector="line" id="v-435" stroke="#444444" stroke-width="2" stroke-linejoin="round" stroke-dasharray="8 8" d="M 1439 759 L 1779 759" marker-end="url(#v-21252848929)"></path><g id="v-428" ><g id="v-429"  label-idx="0" cursor="move" transform="matrix(1,0,0,1,1609,759)" style="cursor: default;"><rect joint-selector="rect" id="v-432" fill="#ffffff" rx="3" ry="3" x="-93.16626739501953" y="-32.10565948486328" width="188.98854064941406" height="58.23396301269531" pointer-events="none"  style="display: block;"></rect><text joint-selector="text" id="v-431" font-size="24px" xml:space="preserve" fill="#444444" text-anchor="middle" pointer-events="none" font-family="Tahoma, Verdana, Helvetica, Arial" font-weight="normal"  style="display: block;"><tspan dy="-0.3em" >Reads raw sensor</tspan><tspan dy="1.2em" x="0" >data</tspan></text></g><g id="v-430"  label-idx="1" cursor="move" transform="matrix(1,0,0,1,1599,785.4000244140625)" style="cursor: default;"><rect joint-selector="rect" id="v-434" fill="#ffffff" rx="3" ry="3" x="2.220446049250313e-16" y="0" width="0" height="0"  display="none"></rect><text joint-selector="text" id="v-433" fill="#000000" font-size="14" text-anchor="middle" text-vertical-anchor="middle" pointer-events="none"></text></g></g></g><!--z-index:20--><g   id="j_41"  style="opacity: 1;"><path fill="none" cursor="pointer" stroke="transparent" stroke-linecap="round" joint-selector="wrapper" id="v-448" stroke-width="10" stroke-linejoin="round" d="M 649 759 L 989 759"></path><path fill="none" pointer-events="none" joint-selector="line" id="v-447" stroke="#444444" stroke-width="2" stroke-linejoin="round" stroke-dasharray="8 8" d="M 649 759 L 989 759" marker-end="url(#v-21252848929)"></path><g id="v-440" ><g id="v-441"  label-idx="0" cursor="move" transform="matrix(1,0,0,1,819,759)" style="cursor: default;"><rect joint-selector="rect" id="v-444" fill="#ffffff" rx="3" ry="3" x="-95.21815490722656" y="-32.10565948486328" width="190.60812377929688" height="58.23396301269531" pointer-events="none"  style="display: block;"></rect><text joint-selector="text" id="v-443" font-size="24px" xml:space="preserve" fill="#444444" text-anchor="middle" pointer-events="none" font-family="Tahoma, Verdana, Helvetica, Arial" font-weight="normal"  style="display: block;"><tspan dy="-0.3em" >Provide correction</tspan><tspan dy="1.2em" x="0" >updates</tspan></text></g><g id="v-442"  label-idx="1" cursor="move" transform="matrix(1,0,0,1,809,785.4000244140625)" style="cursor: default;"><rect joint-selector="rect" id="v-446" fill="#ffffff" rx="3" ry="3" x="2.220446049250313e-16" y="0" width="0" height="0"  display="none"></rect><text joint-selector="text" id="v-445" fill="#000000" font-size="14" text-anchor="middle" text-vertical-anchor="middle" pointer-events="none"></text></g></g></g><!--z-index:21--><g   id="j_42"  style="opacity: 1;"><path fill="none" cursor="pointer" stroke="transparent" stroke-linecap="round" joint-selector="wrapper" id="v-460" stroke-width="10" stroke-linejoin="round" d="M 649 1109 L 809 1109 C 815.6666666666666 1109 821.3333333333333 1106.6666666666665 826 1102 L 1044.71 909"></path><path fill="none" pointer-events="none" joint-selector="line" id="v-459" stroke="#444444" stroke-width="2" stroke-linejoin="round" stroke-dasharray="8 8" d="M 649 1109 L 809 1109 C 815.6666666666666 1109 821.3333333333333 1106.6666666666665 826 1102 L 1044.71 909" marker-end="url(#v-21252848929)"></path><g id="v-452" ><g id="v-453"  label-idx="0" cursor="move" transform="matrix(1,0,0,1,818.4157104492188,1107.1810302734375)" style="cursor: default;"><rect joint-selector="rect" id="v-456" fill="#ffffff" rx="3" ry="3" x="-68.94418334960938" y="-46.46511459350586" width="138.7969207763672" height="86.98605346679688" pointer-events="none"  style="display: block;"></rect><text joint-selector="text" id="v-455" font-size="24px" xml:space="preserve" fill="#444444" text-anchor="middle" pointer-events="none" font-family="Tahoma, Verdana, Helvetica, Arial" font-weight="normal"  style="display: block;"><tspan dy="-0.8999999999999999em" >Sends device</tspan><tspan dy="1.2em" x="0" >add/remove</tspan><tspan dy="1.2em" x="0" >notifications</tspan></text></g><g id="v-454"  label-idx="1" cursor="move" transform="matrix(1,0,0,1,808.4157104492188,1147.98095703125)" style="cursor: default;"><rect joint-selector="rect" id="v-458" fill="#ffffff" rx="3" ry="3" x="0" y="0" width="0" height="0"  display="none"></rect><text joint-selector="text" id="v-457" fill="#000000" font-size="14" text-anchor="middle" text-vertical-anchor="middle" pointer-events="none"></text></g></g></g><!--z-index:22--><!--z-index:23--><!--z-index:24--><!--z-index:25--><!--z-index:26--><!--z-index:27--><!--z-index:28--><!--z-index:29--><!--z-index:30--><!--z-index:31--><!--z-index:32--><!--z-index:33--><!--z-index:34--><!--z-index:35--><!--z-index:36--><!--z-index:37--><!--z-index:38--><!--z-index:39--><!--z-index:40--></g><g  style="user-select: none;"></g><g ></g><g  display="none"></g></g></svg>